<svg xmlns="http://www.w3.org/2000/svg" viewBox="0 0 35 25">
  <g fill="none" fill-rule="evenodd">
    <rect fill="#007ECD" width="35" height="25" rx="3.316"/>
    <path d="M30.745 16.989H29.21v-.774h1.34s.49.057.49-.266c0-.303-.731-.28-.731-.28s-1.192.103-1.192-1c0-1.098 1.077-1.035 1.077-1.035h1.652v.785h-1.33s-.46-.092-.46.239c0 .277.627.238.627.238S32 14.8 32 15.812c0 1.084-.85 1.181-1.15 1.181-.065 0-.105-.004-.105-.004zm-7.666.005V13.64h2.693v.779h-1.824v.516h1.779v.763h-1.78v.57h1.825v.726H23.08zm4.622-.005h-1.537v-.774h1.347s.483.057.483-.266c0-.303-.73-.28-.73-.28s-1.192.103-1.192-1c0-1.098 1.076-1.035 1.076-1.035h1.659v.785H27.47s-.46-.092-.46.239c0 .277.626.238.626.238s1.319-.096 1.319.916c0 1.084-.85 1.181-1.15 1.181-.066 0-.105-.004-.105-.004zm-11.643.006h-.754l-.916-.996-.92.996h-3.212v-3.366H13.4l.99 1.068.995-1.063h.662v-.005h2.095s1.094-.12 1.094.988c0 .99-.364 1.297-1.48 1.297h-.845v1.08h-.852zm-1.082-1.654l1.07 1.17v-2.337l-1.07 1.167zm-3.85.926h1.818l.852-.926-.852-.922h-1.819v.517h1.773v.762h-1.773v.569zm5.784-1.23h.891c.26 0 .473-.141.473-.317 0-.176-.213-.319-.473-.319h-.891v.637zM21.813 17v-.654s-.035-.512-.576-.512h-.84V17h-.863v-3.36h2.095s1.093-.131 1.093.983c0 .58-.483.785-.483.785s.414.193.414.761V17h-.84zm-1.416-1.956h.892c.26 0 .472-.142.472-.318 0-.177-.212-.319-.472-.319h-.892v.637zm-.65-2.644h.868V9.03h-.868v3.37zm-6.688-.011v-3.36h2.694v.784h-1.825v.518h1.779v.761h-1.779v.57h1.825v.727h-2.694zm-1.353 0v-2.32l-1.081 2.32h-.708L8.829 10.08v2.31H7.125l-.3-.706H5.25l-.305.705H4l1.433-3.36h1.214l1.313 3.087V9.028h1.364l.95 2.087.943-2.087h1.364v3.361h-.875zm-6.089-1.564h.84l-.42-1-.42 1zm23.05 1.564l-1.369-2.246v2.246h-1.692l-.305-.705h-1.577l-.3.705h-1.352s-1.162-.165-1.162-1.586c0-1.865 1.318-1.792 1.363-1.803l1.065.028v.757l-.874.011s-.57 0-.64.734a2.395 2.395 0 00-.01.233c.003 1.136.997.784 1.03.773l1.07-2.508h1.208l1.295 3.048V9.028h1.22l1.353 2.213V9.028h.87v3.361h-1.193zm-4.575-1.564h.84l-.414-1-.426 1zM18.48 12.39v-.654s-.034-.512-.575-.512h-.84v1.166H16.2V9.03h2.095s1.094-.131 1.094.983c0 .58-.484.785-.484.785s.42.193.42.762v.83h-.846zm-1.415-1.956h.892c.259 0 .472-.142.472-.319 0-.176-.213-.318-.472-.318h-.892v.637z" fill="#FFF"/>
  </g>
</svg>
