<svg xmlns="http://www.w3.org/2000/svg" viewBox="0 0 35 25">
  <g fill="none" fill-rule="evenodd">
    <rect fill="#FFA200" width="35" height="25" rx="3.358"/>
    <path d="M29.883 12.32h-.265v-1.408h.265c.582 0 .847.26.847.677 0 .47-.265.73-.847.73zm1.8-.783c0-.886-.583-1.355-1.641-1.355h-1.323v4.64h.9v-1.877h.105l1.217 1.876h1.112l-1.43-1.928a1.269 1.269 0 001.06-1.356zm-6.087 3.284h2.54v-.782h-1.64v-1.25h1.587v-.783h-1.587v-1.042h1.64v-.782h-2.54v4.64zM22.95 13.31l-1.217-3.128h-.953l1.958 4.743h.477l1.958-4.743h-.953l-1.27 3.128zm-10.743-.782c0 1.303 1.058 2.397 2.381 2.397.424 0 .794-.104 1.165-.26v-1.043c-.265.313-.636.522-1.059.522-.847 0-1.535-.626-1.535-1.46v-.104c-.053-.834.635-1.564 1.482-1.616.424 0 .847.209 1.112.521v-1.042c-.318-.209-.741-.26-1.112-.26-1.376-.105-2.434.99-2.434 2.345zm-1.64-.574c-.53-.208-.689-.312-.689-.573.053-.313.318-.573.635-.521.265 0 .53.156.741.365l.476-.626c-.37-.313-.846-.521-1.323-.521a1.35 1.35 0 00-1.429 1.25v.053c0 .625.265.99 1.112 1.251.212.052.423.156.635.26a.547.547 0 01.265.47c0 .365-.318.677-.636.677h-.052c-.424 0-.794-.26-.953-.625l-.582.573c.317.574.952.886 1.587.886a1.484 1.484 0 001.588-1.407v-.156c-.053-.626-.317-.939-1.376-1.356zm-3.07 2.867h.9v-4.639h-.9v4.64zm-1.8-1.147a1.691 1.691 0 01-1.217.365h-.265v-3.075h.265c.423-.052.9.104 1.217.365.318.313.477.73.477 1.147 0 .469-.16.886-.477 1.198zM4.64 10.182H3.316v4.64h1.323c.582.051 1.164-.157 1.64-.522.53-.47.847-1.095.847-1.772.053-1.251-.952-2.294-2.223-2.346H4.64zm13.813-.107c-1.323 0-2.435 1.042-2.435 2.397 0 1.303 1.059 2.398 2.435 2.45 1.376.052 2.434-1.042 2.487-2.398-.053-1.355-1.111-2.45-2.487-2.45z" fill="#FFF"/>
  </g>
</svg>
