<svg xmlns="http://www.w3.org/2000/svg" viewBox="0 0 34 24" class="colored" aria-labelledby="lnicon--payment--mastercard-desc lnicon--payment--mastercard-title">
  <path d="M30.8 0H3.2C1.4 0 0 1.4 0 3.2v17.7C0 22.6 1.4 24 3.2 24h27.7c1.7 0 3.2-1.4 3.2-3.2V3.2C34 1.4 32.6 0 30.8 0z" fill="#36495d"/>
  <path fill="#f89e1c" d="M26.9 16v-.2h.1-.2.1v.2zm.4 0v-.2l-.1.1-.1-.1H27v.2h.1v-.2l.1.2.1-.2v.2z"/>
  <path fill="#f16522" d="M14.1 6.9h5.7v10.2h-5.7z"/>
  <path d="M17 6.9c-1.1-.9-2.5-1.4-4-1.4-3.6 0-6.5 2.9-6.5 6.5s2.9 6.5 6.5 6.5c1.5 0 2.9-.5 4-1.4-1.5-1.2-2.5-3-2.5-5.1s1-3.9 2.5-5.1z" fill="#e41b24"/>
  <path d="M17 17.1c1.1.9 2.5 1.4 4 1.4 3.6 0 6.5-2.9 6.5-6.5S24.6 5.5 21 5.5c-1.5 0-2.9.5-4 1.4 1.5 1.2 2.5 3 2.5 5.1s-1 3.9-2.5 5.1z" fill="#f89e1c"/>
</svg>
